<svg width="531" height="511" viewBox="0 0 531 511" fill="none" xmlns="http://www.w3.org/2000/svg">
<path d="M218.382 26.3577C240.423 -7.95704 290.577 -7.95708 312.618 26.3576L363.994 106.346C371.578 118.152 383.318 126.682 396.89 130.246L488.839 154.39C528.285 164.748 543.784 212.448 517.96 244.014L457.763 317.593C448.877 328.454 444.393 342.255 445.198 356.264L450.649 451.174C452.988 491.89 412.412 521.371 374.411 506.565L285.83 472.051C272.756 466.957 258.244 466.957 245.17 472.051L156.589 506.565C118.588 521.371 78.0123 491.891 80.3509 451.174L85.8021 356.264C86.6068 342.255 82.1226 328.454 73.2372 317.593L13.0403 244.014C-12.7841 212.448 2.71458 164.748 42.1607 154.39L134.11 130.246C147.682 126.682 159.422 118.152 167.006 106.346L218.382 26.3577Z" fill="#C11E1E"/>
</svg>
