<svg width="127" height="121" viewBox="0 0 127 121" fill="none" xmlns="http://www.w3.org/2000/svg">
<path d="M53.4033 5.71949C58.1263 -1.63367 68.8737 -1.63366 73.5967 5.7195L86.7123 26.1392C88.3374 28.6692 90.853 30.4969 93.7613 31.2606L117.235 37.4243C125.687 39.6438 129.008 49.8653 123.475 56.6293L108.107 75.4131C106.203 77.7404 105.242 80.6977 105.415 83.6997L106.806 107.929C107.308 116.654 98.6127 122.971 90.4697 119.798L67.8565 110.987C65.0547 109.896 61.9452 109.896 59.1435 110.987L36.5303 119.798C28.3873 122.971 19.6924 116.654 20.1935 107.929L21.5851 83.6997C21.7576 80.6977 20.7967 77.7404 18.8927 75.4131L3.52531 56.6293C-2.00848 49.8653 1.31267 39.6438 9.76541 37.4243L33.2387 31.2606C36.147 30.4969 38.6626 28.6692 40.2877 26.1392L53.4033 5.71949Z" fill="#D9D9D9"/>
</svg>
